<?xml version="1.0" encoding="utf-8"?>
<!-- Generator: Adobe Illustrator 27.6.1, SVG Export Plug-In . SVG Version: 6.00 Build 0)  -->
<svg version="1.1" id="Layer_1" xmlns="http://www.w3.org/2000/svg" xmlns:xlink="http://www.w3.org/1999/xlink" x="0px" y="0px"
	 viewBox="0 0 100 90" style="enable-background:new 0 0 100 90;" xml:space="preserve">
<style type="text/css">
	.st0{fill:#231F20;}
</style>
<path class="st0" d="M97.9,39.7c-0.4-0.6-0.8-1.1-1.3-1.6L61.4,2.8c-3.7-3.7-9.8-3.7-13.5,0c-3.7,3.7-3.7,9.8,0,13.5l19,19H9.5
	c-5.2,0-9.5,4.3-9.5,9.5c0,5.2,4.3,9.5,9.5,9.5h58.1L48.2,73.7c-3.7,3.7-3.7,9.8,0,13.5h0c3.7,3.7,9.8,3.7,13.5,0l35.3-35.3
	C100.2,48.6,100.6,43.4,97.9,39.7z"/>
</svg>
