<?xml version="1.0" encoding="UTF-8"?><svg id="Layer_1" xmlns="http://www.w3.org/2000/svg" viewBox="0 0 25 25"><defs><style>.cls-1{fill:#231f20;}</style></defs><path class="cls-1" d="m23.94,13.61s.05-.1.08-.15c.03-.06.07-.12.1-.19.03-.07.04-.13.06-.2.02-.06.04-.11.05-.17.05-.26.05-.52,0-.78-.01-.06-.03-.11-.05-.17-.02-.07-.04-.14-.06-.2-.03-.07-.07-.13-.1-.19-.03-.05-.05-.1-.08-.15-.07-.11-.16-.21-.25-.31l-7.74-7.74c-.78-.78-2.05-.78-2.83,0-.78.78-.78,2.05,0,2.83l4.32,4.32H2.72c-1.1,0-2,.9-2,2s.9,2,2,2h14.72l-4.32,4.32c-.78.78-.78,2.05,0,2.83.39.39.9.59,1.41.59s1.02-.2,1.41-.59l7.74-7.74c.09-.09.18-.2.25-.31Z"/></svg>